<svg width="1440" height="68" viewBox="0 0 1440 68" fill="none" xmlns="http://www.w3.org/2000/svg">
<rect width="1440" height="68" fill="#1E1E1E"/>
<rect x="48" y="14" width="141" height="40" rx="8" fill="white" fill-opacity="0.1"/>
<path d="M80 30.5C80 32.7091 78.2091 34.5 76 34.5C73.7909 34.5 72 32.7091 72 30.5C72 28.2909 73.7909 26.5 76 26.5C78.2091 26.5 80 28.2909 80 30.5Z" stroke="#F0F0F0" stroke-width="1.5"/>
<path d="M82 41.5C82 40.8434 81.8448 40.1932 81.5433 39.5866C81.2417 38.98 80.7998 38.4288 80.2426 37.9645C79.6855 37.5002 79.0241 37.1319 78.2961 36.8806C77.5681 36.6293 76.7879 36.5 76 36.5C75.2121 36.5 74.4319 36.6293 73.7039 36.8806C72.9759 37.1319 72.3145 37.5002 71.7574 37.9645C71.2002 38.4288 70.7583 38.98 70.4567 39.5866C70.1552 40.1932 70 40.8434 70 41.5H82Z" stroke="#F0F0F0" stroke-width="1.5"/>
<path d="M92.7107 35.494L93.5927 34.906L94.2087 35.228L94.9227 33.828C95.1187 33.4547 95.3847 33.17 95.7207 32.974C96.0567 32.7687 96.4161 32.666 96.7987 32.666C97.1441 32.666 97.4707 32.7453 97.7787 32.904C98.1801 33.1187 98.4881 33.4407 98.7027 33.87C98.9267 34.29 99.0387 34.7613 99.0387 35.284C99.0387 35.928 98.8801 36.5487 98.5627 37.146C98.4134 37.4353 98.2081 37.664 97.9467 37.832C97.6854 37.9907 97.4054 38.07 97.1067 38.07C96.8454 38.07 96.5981 38.0093 96.3647 37.888L94.0127 36.67L94.2647 42.158L92.9627 42.2L92.7107 35.494ZM97.0647 36.698C97.1301 36.7353 97.2001 36.754 97.2747 36.754C97.3867 36.754 97.4754 36.6887 97.5407 36.558C97.7741 36.0727 97.8907 35.6387 97.8907 35.256C97.8907 34.7333 97.6994 34.3693 97.3167 34.164C97.1767 34.0893 97.0274 34.052 96.8687 34.052C96.6634 34.052 96.4674 34.1173 96.2807 34.248C96.1034 34.3693 95.9587 34.5467 95.8467 34.78L95.3287 35.802L97.0647 36.698ZM103.515 38C102.89 38 102.395 37.9067 102.031 37.72C101.667 37.5333 101.401 37.2347 101.233 36.824C101.065 36.404 100.967 35.8253 100.939 35.088L100.687 28.648L101.989 28.592L102.241 35.088C102.26 35.536 102.297 35.858 102.353 36.054C102.419 36.2407 102.531 36.3713 102.689 36.446C102.857 36.5113 103.133 36.544 103.515 36.544H103.655L103.739 37.272L103.655 38H103.515ZM103.521 36.544H104.627C105.075 36.544 105.42 36.4693 105.663 36.32C105.915 36.1707 106.041 35.914 106.041 35.55C106.041 35.3633 106.008 35.158 105.943 34.934L105.383 32.848L106.643 32.484L107.203 34.57C107.296 34.906 107.343 35.2327 107.343 35.55C107.343 36.3153 107.086 36.9173 106.573 37.356C106.059 37.7853 105.411 38 104.627 38H103.521V36.544ZM104.641 29.726H106.195V31.28H104.641V29.726ZM117.947 38C116.893 38 116.095 37.9907 115.553 37.972C115.021 37.944 114.615 37.9067 114.335 37.86C114.065 37.804 113.803 37.7247 113.551 37.622C113.113 37.426 112.777 37.1413 112.543 36.768C112.31 36.3947 112.193 35.9607 112.193 35.466C112.193 35.1673 112.235 34.85 112.319 34.514L112.837 32.512L114.083 32.876L113.551 34.934C113.505 35.0927 113.481 35.2653 113.481 35.452C113.481 35.6573 113.528 35.8253 113.621 35.956C113.715 36.0867 113.864 36.1987 114.069 36.292C114.293 36.3853 114.639 36.4507 115.105 36.488C115.581 36.5253 116.557 36.544 118.031 36.544H121.321C121.751 36.544 122.054 36.474 122.231 36.334C122.409 36.1847 122.488 35.956 122.469 35.648V35.62L122.315 33.898L123.617 33.772L123.771 35.494V35.536C123.809 35.9187 123.907 36.1847 124.065 36.334C124.233 36.474 124.513 36.544 124.905 36.544H125.059L125.143 37.272L125.059 38H124.905C124.131 38 123.543 37.7853 123.141 37.356C122.927 37.5613 122.665 37.72 122.357 37.832C122.049 37.944 121.704 38 121.321 38H118.031H117.947ZM116.085 31.672H117.457V33.058H116.085V31.672ZM118.689 31.672H120.061V33.058H118.689V31.672ZM124.904 36.544H125.786C126.215 36.544 126.518 36.474 126.696 36.334C126.873 36.1847 126.952 35.956 126.934 35.648V35.62L126.78 33.898L128.068 33.772L128.222 35.494V35.508C128.259 35.9 128.357 36.1707 128.516 36.32C128.674 36.4693 128.959 36.544 129.37 36.544L129.454 37.272L129.37 38C128.604 38 128.016 37.79 127.606 37.37C127.167 37.79 126.56 38 125.786 38H124.904V36.544ZM124.918 39.218H126.472V40.772H124.918V39.218ZM129.224 36.544H131.296C131.735 36.544 132.075 36.4693 132.318 36.32C132.57 36.1613 132.696 35.9 132.696 35.536C132.696 35.3587 132.663 35.158 132.598 34.934L132.052 32.848L133.312 32.484L133.872 34.64C133.965 34.9573 134.012 35.2747 134.012 35.592C134.012 36.096 133.891 36.53 133.648 36.894C133.405 37.258 133.079 37.5333 132.668 37.72C132.257 37.9067 131.8 38 131.296 38H129.224V36.544ZM129.77 29.726H131.226L131.24 31.196H129.756L129.77 29.726ZM131.156 27.85H132.486V29.11H131.156V27.85ZM132.388 29.726H133.844L133.858 31.196H132.374L132.388 29.726ZM141.206 28.662H142.732L139.904 37.972H138.378L141.206 28.662ZM150.071 38C149.361 38 148.792 37.846 148.363 37.538C147.943 37.23 147.714 36.8333 147.677 36.348C147.639 36.1707 147.621 35.8673 147.621 35.438H148.825C148.825 35.7087 148.839 35.928 148.867 36.096C148.904 36.264 148.997 36.3807 149.147 36.446C149.296 36.5113 149.529 36.544 149.847 36.544H151.009C151.839 36.544 152.255 36.292 152.255 35.788C152.255 35.732 152.236 35.62 152.199 35.452C152.04 34.976 151.755 34.388 151.345 33.688C150.943 32.988 150.5 32.2927 150.015 31.602L151.065 30.748C151.615 31.5133 152.115 32.2927 152.563 33.086C153.02 33.8793 153.319 34.5607 153.459 35.13C153.515 35.3633 153.543 35.5967 153.543 35.83C153.543 36.474 153.314 36.9967 152.857 37.398C152.399 37.7993 151.727 38 150.841 38H150.071ZM155.631 40.184C156.723 39.96 157.502 39.778 157.969 39.638C158.436 39.5073 158.772 39.3393 158.977 39.134C159.192 38.938 159.299 38.6533 159.299 38.28C159.299 38.1307 159.294 38.014 159.285 37.93L159.271 37.86C158.692 37.9533 158.123 38 157.563 38C157.096 38 156.672 37.888 156.289 37.664C155.916 37.44 155.622 37.132 155.407 36.74C155.202 36.348 155.099 35.9 155.099 35.396C155.099 34.9013 155.206 34.4347 155.421 33.996C155.636 33.5573 155.934 33.2027 156.317 32.932C156.709 32.6613 157.157 32.526 157.661 32.526C158.38 32.526 158.982 32.8013 159.467 33.352C159.952 33.9027 160.246 34.626 160.349 35.522L160.587 37.776C160.606 38.0373 160.615 38.224 160.615 38.336C160.615 39.008 160.452 39.54 160.125 39.932C159.808 40.324 159.327 40.6367 158.683 40.87C158.039 41.1033 157.11 41.346 155.897 41.598L155.631 40.184ZM156.401 35.382C156.401 35.746 156.504 36.0307 156.709 36.236C156.914 36.4413 157.199 36.544 157.563 36.544C158.104 36.544 158.627 36.4973 159.131 36.404L159.061 35.704C159.005 35.1533 158.851 34.7287 158.599 34.43C158.347 34.1313 158.03 33.982 157.647 33.982C157.264 33.982 156.961 34.122 156.737 34.402C156.513 34.6727 156.401 34.9993 156.401 35.382ZM161.108 40.184L161.794 40.002C162.308 39.862 162.704 39.7313 162.984 39.61C163.274 39.4887 163.502 39.3207 163.67 39.106C163.848 38.9007 163.936 38.6253 163.936 38.28C163.936 38.2147 163.927 38.098 163.908 37.93L163.348 33.898L164.636 33.702L165.042 36.67L165.084 36.964L165.182 37.762C165.21 37.986 165.224 38.1913 165.224 38.378C165.224 39.218 164.963 39.862 164.44 40.31C163.927 40.758 163.157 41.122 162.13 41.402L161.444 41.584L161.108 40.184ZM167.307 40.184C168.399 39.96 169.178 39.778 169.645 39.638C170.112 39.5073 170.448 39.3393 170.653 39.134C170.868 38.938 170.975 38.6533 170.975 38.28C170.975 38.1307 170.97 38.014 170.961 37.93L170.947 37.86C170.368 37.9533 169.799 38 169.239 38C168.772 38 168.348 37.888 167.965 37.664C167.592 37.44 167.298 37.132 167.083 36.74C166.878 36.348 166.775 35.9 166.775 35.396C166.775 34.9013 166.882 34.4347 167.097 33.996C167.312 33.5573 167.61 33.2027 167.993 32.932C168.385 32.6613 168.833 32.526 169.337 32.526C170.056 32.526 170.658 32.8013 171.143 33.352C171.628 33.9027 171.922 34.626 172.025 35.522L172.263 37.776C172.282 38.0373 172.291 38.224 172.291 38.336C172.291 39.008 172.128 39.54 171.801 39.932C171.484 40.324 171.003 40.6367 170.359 40.87C169.715 41.1033 168.786 41.346 167.573 41.598L167.307 40.184ZM168.077 35.382C168.077 35.746 168.18 36.0307 168.385 36.236C168.59 36.4413 168.875 36.544 169.239 36.544C169.78 36.544 170.303 36.4973 170.807 36.404L170.737 35.704C170.681 35.1533 170.527 34.7287 170.275 34.43C170.023 34.1313 169.706 33.982 169.323 33.982C168.94 33.982 168.637 34.122 168.413 34.402C168.189 34.6727 168.077 34.9993 168.077 35.382Z" fill="#F0F0F0"/>
<rect x="205" y="14" width="147.99" height="40" rx="8" fill="white" fill-opacity="0.1"/>
<path d="M221 41.2152L231.102 41.215L232.63 46H237.653L230.918 24.913C230.364 23.1778 228.751 22 226.929 22L221 22.0002V26.7852L226.493 26.785L229.573 36.43L221 36.4302V41.2152Z" fill="#F0F0F0"/>
<path d="M241.99 34.3801C241.99 35.022 241.47 35.5424 240.828 35.5424H236.609L235.162 30.748H240.828C241.47 30.748 241.99 31.2684 241.99 31.9103V34.3801Z" fill="#F0F0F0"/>
<path d="M255.985 38C255.705 38 255.467 37.9533 255.271 37.86C255.281 37.9347 255.285 38.0467 255.285 38.196C255.285 38.8213 255.141 39.3347 254.851 39.736C254.571 40.1467 254.179 40.4687 253.675 40.702C253.181 40.9353 252.555 41.136 251.799 41.304C251.342 41.4067 250.927 41.458 250.553 41.458C249.825 41.458 249.195 41.2947 248.663 40.968C248.131 40.6413 247.725 40.1793 247.445 39.582C247.165 38.9847 247.025 38.2893 247.025 37.496C247.025 36.6 247.203 35.648 247.557 34.64L248.789 35.13C248.472 36.026 248.313 36.8287 248.313 37.538C248.313 38.322 248.505 38.9287 248.887 39.358C249.279 39.7873 249.835 40.002 250.553 40.002C250.88 40.002 251.197 39.9647 251.505 39.89C252.159 39.7407 252.639 39.61 252.947 39.498C253.265 39.386 253.512 39.2273 253.689 39.022C253.876 38.8167 253.969 38.5227 253.969 38.14C253.969 38.0653 253.96 37.9347 253.941 37.748L253.381 33.912L254.655 33.702C254.795 34.5887 254.889 35.158 254.935 35.41C255.01 35.8207 255.122 36.1147 255.271 36.292C255.43 36.46 255.659 36.544 255.957 36.544H256.349L256.433 37.272L256.349 38H255.985ZM250.231 33.044H251.785V34.584H250.231V33.044ZM263.53 38C262.821 38 262.247 37.7293 261.808 37.188C261.379 37.7293 260.777 38 260.002 38C259.302 38 258.747 37.7293 258.336 37.188C257.888 37.7293 257.296 38 256.558 38H256.208V36.544H256.558C257.006 36.544 257.31 36.4507 257.468 36.264C257.627 36.0773 257.706 35.8393 257.706 35.55V33.828H258.924V35.55C258.924 35.7553 258.994 35.9747 259.134 36.208C259.274 36.432 259.564 36.544 260.002 36.544C260.45 36.544 260.749 36.4553 260.898 36.278C261.057 36.0913 261.136 35.8487 261.136 35.55V33.828H262.354V35.564C262.354 35.7507 262.424 35.9607 262.564 36.194C262.714 36.418 263.008 36.53 263.446 36.53C263.857 36.53 264.156 36.46 264.342 36.32C264.538 36.18 264.636 35.998 264.636 35.774C264.636 35.69 264.622 35.606 264.594 35.522L264.132 33.8L265.308 33.45L265.77 35.172L265.798 35.27C265.901 35.6527 266.102 35.9607 266.4 36.194C266.699 36.4273 267.044 36.544 267.436 36.544L267.52 37.272L267.436 38C267.035 38 266.666 37.9253 266.33 37.776C265.994 37.6173 265.7 37.398 265.448 37.118C265.243 37.3887 264.977 37.6033 264.65 37.762C264.324 37.9207 263.95 38 263.53 38ZM259.764 30.888H261.234L261.248 32.358H259.764V30.888ZM261.15 29.012H262.494V30.272H261.15V29.012ZM262.382 30.888H263.852V32.358H262.382V30.888ZM267.296 36.544H269.55C269.98 36.544 270.283 36.4693 270.46 36.32C270.638 36.1707 270.712 35.9373 270.684 35.62L270.53 33.898L271.832 33.772L271.986 35.494V35.508C272.024 35.9 272.122 36.1707 272.28 36.32C272.448 36.4693 272.733 36.544 273.134 36.544L273.204 37.272L273.134 38C272.36 38 271.772 37.7853 271.37 37.356C270.913 37.7853 270.306 38 269.55 38H267.296V36.544ZM266.61 39.358H267.982V40.744H266.61V39.358ZM269.228 39.358H270.6V40.744H269.228V39.358ZM280.025 38C279.615 38 279.232 37.9113 278.877 37.734C278.523 37.5473 278.182 37.2767 277.855 36.922C277.781 37.0713 277.683 37.2067 277.561 37.328C277.188 37.776 276.647 38 275.937 38H272.997V36.544H275.951C276.166 36.544 276.334 36.4973 276.455 36.404C276.661 36.2547 276.763 36.054 276.763 35.802C276.763 35.6433 276.717 35.4893 276.623 35.34L273.515 30.944L273.809 29.852L278.863 27.99L279.325 29.348L275.139 30.874L277.603 34.472L277.701 34.626C278.168 35.3727 278.565 35.8813 278.891 36.152C279.227 36.4133 279.605 36.544 280.025 36.544H280.221L280.305 37.272L280.221 38H280.025ZM280.079 36.544H282.333C282.763 36.544 283.066 36.4693 283.243 36.32C283.421 36.1707 283.495 35.9373 283.467 35.62L283.313 33.898L284.615 33.772L284.769 35.494V35.508C284.807 35.9 284.905 36.1707 285.063 36.32C285.231 36.4693 285.516 36.544 285.917 36.544L285.987 37.272L285.917 38C285.143 38 284.555 37.7853 284.153 37.356C283.696 37.7853 283.089 38 282.333 38H280.079V36.544ZM279.393 39.358H280.765V40.744H279.393V39.358ZM282.011 39.358H283.383V40.744H282.011V39.358ZM289.687 38C288.884 38 288.301 37.762 287.937 37.286C287.489 37.762 286.877 38 286.103 38H285.781V36.544H286.103C286.887 36.544 287.269 36.2173 287.251 35.564L286.985 28.648L288.273 28.578L288.525 35.2L288.539 35.312C288.567 35.8067 288.679 36.138 288.875 36.306C289.071 36.4647 289.341 36.544 289.687 36.544H289.967L290.051 37.272L289.967 38H289.687ZM289.827 36.544H291.899C292.338 36.544 292.679 36.4693 292.921 36.32C293.173 36.1613 293.299 35.9 293.299 35.536C293.299 35.3587 293.267 35.158 293.201 34.934L292.655 32.848L293.915 32.484L294.475 34.64C294.569 34.9573 294.615 35.2747 294.615 35.592C294.615 36.096 294.494 36.53 294.251 36.894C294.009 37.258 293.682 37.5333 293.271 37.72C292.861 37.9067 292.403 38 291.899 38H289.827V36.544ZM289.141 39.274H290.625L290.611 40.744H289.141V39.274ZM290.541 41.36H291.871V42.62H290.541V41.36ZM291.759 39.274H293.229V40.744H291.759V39.274ZM296.418 28.648L297.72 28.578L298.07 37.986L296.782 38.042L296.418 28.648ZM305.78 38C305.07 38 304.501 37.846 304.072 37.538C303.652 37.23 303.423 36.8333 303.386 36.348C303.348 36.1707 303.33 35.8673 303.33 35.438H304.534C304.534 35.7087 304.548 35.928 304.576 36.096C304.613 36.264 304.706 36.3807 304.856 36.446C305.005 36.5113 305.238 36.544 305.556 36.544H306.718C307.548 36.544 307.964 36.292 307.964 35.788C307.964 35.732 307.945 35.62 307.908 35.452C307.749 34.976 307.464 34.388 307.054 33.688C306.652 32.988 306.209 32.2927 305.724 31.602L306.774 30.748C307.324 31.5133 307.824 32.2927 308.272 33.086C308.729 33.8793 309.028 34.5607 309.168 35.13C309.224 35.3633 309.252 35.5967 309.252 35.83C309.252 36.474 309.023 36.9967 308.566 37.398C308.108 37.7993 307.436 38 306.55 38H305.78ZM311.34 40.184C312.535 39.932 313.361 39.7313 313.818 39.582C314.285 39.442 314.607 39.2553 314.784 39.022C314.971 38.798 315.045 38.4573 315.008 38H313.286C312.53 38 311.928 37.7667 311.48 37.3C311.032 36.824 310.808 36.1893 310.808 35.396C310.808 34.9013 310.915 34.4347 311.13 33.996C311.345 33.548 311.648 33.1933 312.04 32.932C312.432 32.6613 312.875 32.526 313.37 32.526C314.089 32.526 314.691 32.806 315.176 33.366C315.661 33.9167 315.955 34.6353 316.058 35.522L316.17 36.544H317.01L317.094 37.272L317.01 38H316.968H316.324L316.338 38.308C316.338 38.9893 316.175 39.526 315.848 39.918C315.531 40.31 315.05 40.6227 314.406 40.856C313.762 41.0987 312.829 41.346 311.606 41.598L311.34 40.184ZM312.11 35.396C312.11 35.7787 312.203 36.068 312.39 36.264C312.577 36.4507 312.875 36.544 313.286 36.544H314.854L314.756 35.69C314.7 35.1393 314.551 34.7193 314.308 34.43C314.065 34.1313 313.753 33.982 313.37 33.982C312.978 33.982 312.67 34.122 312.446 34.402C312.222 34.682 312.11 35.0133 312.11 35.396ZM320.776 38C319.974 38 319.39 37.762 319.026 37.286C318.578 37.762 317.967 38 317.192 38H316.87V36.544H317.192C317.976 36.544 318.359 36.2173 318.34 35.564L318.074 28.648L319.362 28.578L319.614 35.2L319.628 35.312C319.656 35.8067 319.768 36.138 319.964 36.306C320.16 36.4647 320.431 36.544 320.776 36.544H321.056L321.14 37.272L321.056 38H320.776ZM320.917 36.544H322.023C322.471 36.544 322.817 36.4693 323.059 36.32C323.311 36.1707 323.437 35.914 323.437 35.55C323.437 35.3633 323.405 35.158 323.339 34.934L322.779 32.848L324.039 32.484L324.599 34.57C324.693 34.906 324.739 35.2327 324.739 35.55C324.739 36.3153 324.483 36.9173 323.969 37.356C323.456 37.7853 322.807 38 322.023 38H320.917V36.544ZM322.037 29.726H323.591V31.28H322.037V29.726ZM326.55 28.648L327.852 28.578L328.202 37.986L326.914 38.042L326.55 28.648ZM332.481 38C331.771 38 331.202 37.846 330.773 37.538C330.353 37.23 330.124 36.8333 330.087 36.348C330.049 36.1707 330.031 35.8673 330.031 35.438H331.235C331.235 35.7087 331.249 35.928 331.277 36.096C331.314 36.264 331.407 36.3807 331.557 36.446C331.706 36.5113 331.939 36.544 332.257 36.544H333.419C334.249 36.544 334.665 36.292 334.665 35.788C334.665 35.732 334.646 35.62 334.609 35.452C334.45 34.976 334.165 34.388 333.755 33.688C333.353 32.988 332.91 32.2927 332.425 31.602L333.475 30.748C334.025 31.5133 334.525 32.2927 334.973 33.086C335.43 33.8793 335.729 34.5607 335.869 35.13C335.925 35.3633 335.953 35.5967 335.953 35.83C335.953 36.474 335.724 36.9967 335.267 37.398C334.809 37.7993 334.137 38 333.251 38H332.481Z" fill="#F0F0F0"/>
<g clip-path="url(#clip0_1759_11033)">
<path d="M675.724 38C675.117 38 674.641 37.9113 674.296 37.734C673.951 37.5567 673.699 37.272 673.54 36.88C673.381 36.4787 673.288 35.928 673.26 35.228L673.008 28.788L674.072 28.732L674.324 35.228C674.343 35.704 674.385 36.0493 674.45 36.264C674.525 36.4787 674.655 36.628 674.842 36.712C675.029 36.7867 675.323 36.824 675.724 36.824H675.864L675.934 37.412L675.864 38H675.724ZM675.731 36.824H675.885C676.193 36.824 676.463 36.754 676.697 36.614C676.939 36.474 677.126 36.278 677.257 36.026L678.307 34.01C678.484 33.6647 678.736 33.3987 679.063 33.212C679.389 33.016 679.739 32.918 680.113 32.918C680.467 32.918 680.785 32.9973 681.065 33.156C681.457 33.3613 681.746 33.6413 681.933 33.996C682.129 34.3413 682.227 34.7427 682.227 35.2C682.227 35.8067 682.063 36.46 681.737 37.16C681.606 37.4307 681.415 37.65 681.163 37.818C680.911 37.986 680.64 38.07 680.351 38.07C680.127 38.07 679.903 38.014 679.679 37.902L677.887 36.978C677.644 37.3047 677.35 37.5567 677.005 37.734C676.669 37.9113 676.295 38 675.885 38H675.731V36.824ZM680.295 36.894C680.388 36.9407 680.472 36.964 680.547 36.964C680.64 36.964 680.719 36.9407 680.785 36.894C680.85 36.838 680.897 36.7727 680.925 36.698L681.051 36.446C681.209 36.054 681.289 35.6947 681.289 35.368C681.289 35.088 681.233 34.8453 681.121 34.64C681.018 34.4253 680.859 34.262 680.645 34.15C680.477 34.066 680.309 34.024 680.141 34.024C679.926 34.024 679.725 34.0847 679.539 34.206C679.352 34.318 679.207 34.4767 679.105 34.682L678.447 35.956L680.295 36.894ZM690.203 38C689.596 38 689.12 37.9113 688.775 37.734C688.429 37.5567 688.177 37.272 688.019 36.88C687.86 36.4787 687.767 35.928 687.739 35.228L687.487 28.788L688.551 28.732L688.803 35.228C688.821 35.704 688.863 36.0493 688.929 36.264C689.003 36.4787 689.134 36.628 689.321 36.712C689.507 36.7867 689.801 36.824 690.203 36.824H690.343L690.413 37.412L690.343 38H690.203ZM690.209 36.824H691.315C692.333 36.824 692.841 36.4413 692.841 35.676C692.841 35.4707 692.809 35.256 692.743 35.032L692.183 32.946L693.219 32.652L693.779 34.738C693.863 35.0833 693.905 35.4007 693.905 35.69C693.905 36.4273 693.658 36.9967 693.163 37.398C692.669 37.7993 692.053 38 691.315 38H690.209V36.824ZM690.531 39.274H691.931V40.688H690.531V39.274ZM711.663 38C711.29 38 710.959 37.9347 710.669 37.804C710.38 37.664 710.142 37.4727 709.955 37.23C709.554 37.7433 708.971 38 708.205 38C707.673 38 707.221 37.8693 706.847 37.608L706.861 37.692C706.889 37.916 706.903 38.126 706.903 38.322C706.903 38.938 706.759 39.4373 706.469 39.82C706.18 40.212 705.797 40.5107 705.321 40.716C704.845 40.9307 704.243 41.1267 703.515 41.304C703.058 41.4067 702.652 41.458 702.297 41.458C701.243 41.458 700.412 41.1127 699.805 40.422C699.208 39.7313 698.909 38.8027 698.909 37.636C698.909 36.7587 699.082 35.816 699.427 34.808L700.435 35.214C700.118 36.1287 699.959 36.95 699.959 37.678C699.959 38.4993 700.16 39.134 700.561 39.582C700.963 40.0393 701.537 40.268 702.283 40.268C702.582 40.268 702.913 40.226 703.277 40.142C703.949 39.9833 704.439 39.848 704.747 39.736C705.065 39.6333 705.326 39.4653 705.531 39.232C705.737 39.008 705.839 38.6907 705.839 38.28C705.839 38.1027 705.83 37.9627 705.811 37.86L705.251 34.024L706.301 33.842L706.539 35.508C706.67 35.984 706.861 36.3247 707.113 36.53C707.365 36.726 707.729 36.824 708.205 36.824C709.045 36.824 709.465 36.446 709.465 35.69V33.954H710.459V35.69C710.459 36.446 710.861 36.824 711.663 36.824C712.027 36.824 712.326 36.74 712.559 36.572C712.802 36.3947 712.923 36.11 712.923 35.718C712.923 35.5033 712.891 35.2793 712.825 35.046L712.265 32.96L713.287 32.666L713.847 34.752C713.941 35.088 713.987 35.41 713.987 35.718C713.987 36.194 713.88 36.6047 713.665 36.95C713.451 37.2953 713.166 37.5567 712.811 37.734C712.466 37.9113 712.083 38 711.663 38ZM718.408 38C717.801 38 717.325 37.9113 716.98 37.734C716.634 37.5567 716.382 37.272 716.224 36.88C716.065 36.4787 715.972 35.928 715.944 35.228L715.692 28.788L716.756 28.732L717.008 35.228C717.026 35.704 717.068 36.0493 717.134 36.264C717.208 36.4787 717.339 36.628 717.526 36.712C717.712 36.7867 718.006 36.824 718.408 36.824H718.548L718.618 37.412L718.548 38H718.408ZM726.366 38C725.526 38 724.896 37.6733 724.476 37.02C724.448 37.0947 724.43 37.1413 724.42 37.16C724.29 37.4307 724.098 37.65 723.846 37.818C723.594 37.986 723.324 38.07 723.034 38.07C722.81 38.07 722.586 38.014 722.362 37.902L720.57 36.978C720.328 37.3047 720.034 37.5567 719.688 37.734C719.352 37.9113 718.979 38 718.568 38H718.414V36.824H718.568C718.876 36.824 719.147 36.754 719.38 36.614C719.623 36.474 719.81 36.278 719.94 36.026L720.99 34.01C721.168 33.6647 721.42 33.3987 721.746 33.212C722.073 33.016 722.423 32.918 722.796 32.918C723.151 32.918 723.468 32.9973 723.748 33.156C724.131 33.3613 724.416 33.6413 724.602 33.996C724.798 34.3413 724.896 34.7427 724.896 35.2C724.896 35.4427 724.878 35.662 724.84 35.858C724.934 36.1567 725.111 36.3947 725.372 36.572C725.643 36.74 725.974 36.824 726.366 36.824L726.436 37.412L726.366 38ZM722.978 36.894C723.072 36.9407 723.156 36.964 723.23 36.964C723.324 36.964 723.403 36.9407 723.468 36.894C723.534 36.838 723.58 36.7727 723.608 36.698L723.734 36.446C723.893 36.054 723.972 35.6947 723.972 35.368C723.972 35.088 723.916 34.8453 723.804 34.64C723.702 34.4253 723.543 34.262 723.328 34.15C723.16 34.066 722.992 34.024 722.824 34.024C722.61 34.024 722.409 34.0847 722.222 34.206C722.036 34.318 721.891 34.4767 721.788 34.682L721.13 35.956L722.978 36.894ZM726.166 36.824H728.21C729.218 36.824 729.722 36.446 729.722 35.69C729.722 35.4847 729.69 35.2653 729.624 35.032L729.078 32.946L730.1 32.652L730.674 34.794C730.758 35.13 730.8 35.4333 730.8 35.704C730.8 36.432 730.548 36.9967 730.044 37.398C729.55 37.7993 728.938 38 728.21 38H726.166V36.824ZM726.824 30.09H728.07V31.336H726.824V30.09ZM729.302 30.09H730.548V31.336H729.302V30.09Z" fill="white"/>
<path d="M799.724 38C799.117 38 798.641 37.9113 798.296 37.734C797.951 37.5567 797.699 37.272 797.54 36.88C797.381 36.4787 797.288 35.928 797.26 35.228L797.008 28.788L798.072 28.732L798.324 35.228C798.343 35.704 798.385 36.0493 798.45 36.264C798.525 36.4787 798.655 36.628 798.842 36.712C799.029 36.7867 799.323 36.824 799.724 36.824H799.864L799.934 37.412L799.864 38H799.724ZM799.731 36.824H800.417C800.865 36.824 801.299 36.7913 801.719 36.726C801.327 36.5207 801.014 36.2313 800.781 35.858C800.557 35.4847 800.445 35.0787 800.445 34.64C800.445 34.276 800.529 33.9213 800.697 33.576C800.893 33.1467 801.196 32.806 801.607 32.554L801.313 32.4L801.803 31.35L806.745 33.954C807.137 34.1593 807.445 34.458 807.669 34.85C807.902 35.2327 808.019 35.6387 808.019 36.068C808.019 36.404 807.949 36.726 807.809 37.034C807.613 37.4447 807.333 37.7667 806.969 38C806.614 38.2333 806.222 38.35 805.793 38.35C805.475 38.35 805.163 38.28 804.855 38.14L803.189 37.384C802.386 37.7947 801.462 38 800.417 38H799.731V36.824ZM801.705 34.038C801.611 34.2247 801.565 34.4207 801.565 34.626C801.565 34.8593 801.625 35.074 801.747 35.27C801.877 35.466 802.059 35.6153 802.293 35.718L803.175 36.138C803.539 35.886 803.809 35.5687 803.987 35.186C804.071 35.018 804.113 34.836 804.113 34.64C804.113 34.4067 804.047 34.1873 803.917 33.982C803.795 33.7673 803.623 33.604 803.399 33.492C803.212 33.3987 803.016 33.352 802.811 33.352C802.577 33.352 802.363 33.4127 802.167 33.534C801.971 33.6553 801.817 33.8233 801.705 34.038ZM805.289 37.132C805.466 37.2067 805.639 37.244 805.807 37.244C806.031 37.244 806.241 37.188 806.437 37.076C806.633 36.9547 806.777 36.7867 806.871 36.572C806.945 36.404 806.983 36.2407 806.983 36.082C806.983 35.858 806.917 35.6527 806.787 35.466C806.665 35.27 806.493 35.1113 806.269 34.99L805.149 34.402C805.158 34.458 805.163 34.5373 805.163 34.64C805.163 35.004 805.088 35.3493 804.939 35.676C804.789 36.0213 804.561 36.3433 804.253 36.642L805.289 37.132ZM825.863 38C825.461 38 825.111 37.93 824.813 37.79C824.514 37.6407 824.276 37.44 824.099 37.188C823.669 37.7293 823.091 38 822.363 38C821.821 38 821.35 37.8367 820.949 37.51L820.977 37.692C821.005 37.916 821.019 38.126 821.019 38.322C821.019 38.938 820.874 39.4373 820.585 39.82C820.295 40.212 819.913 40.5107 819.437 40.716C818.961 40.9307 818.359 41.1267 817.631 41.304C817.173 41.4067 816.767 41.458 816.413 41.458C815.358 41.458 814.527 41.1127 813.921 40.422C813.323 39.7313 813.025 38.8027 813.025 37.636C813.025 36.7587 813.197 35.816 813.543 34.808L814.551 35.214C814.233 36.1287 814.075 36.95 814.075 37.678C814.075 38.4993 814.275 39.134 814.677 39.582C815.078 40.0393 815.652 40.268 816.399 40.268C816.697 40.268 817.029 40.226 817.393 40.142C818.065 39.9833 818.555 39.848 818.863 39.736C819.18 39.6333 819.441 39.4653 819.647 39.232C819.852 39.008 819.955 38.6907 819.955 38.28C819.955 38.1027 819.945 37.9627 819.927 37.86L819.367 34.024L820.417 33.842L820.641 35.396C820.743 35.9 820.93 36.264 821.201 36.488C821.471 36.7027 821.845 36.81 822.321 36.81C823.17 36.81 823.595 36.4367 823.595 35.69V33.954H824.589V35.69C824.589 35.9607 824.663 36.2127 824.813 36.446C824.971 36.6793 825.298 36.796 825.793 36.796C826.241 36.796 826.567 36.7167 826.773 36.558C826.987 36.39 827.095 36.1753 827.095 35.914C827.095 35.8113 827.081 35.7133 827.053 35.62L826.591 33.898L827.557 33.618L828.019 35.34L828.033 35.41C828.145 35.83 828.364 36.1707 828.691 36.432C829.017 36.6933 829.391 36.824 829.811 36.824H829.965L830.035 37.412L829.965 38H829.811C829.409 38 829.036 37.916 828.691 37.748C828.345 37.58 828.047 37.3467 827.795 37.048C827.608 37.3373 827.347 37.5707 827.011 37.748C826.684 37.916 826.301 38 825.863 38ZM829.795 36.824H831.839C832.847 36.824 833.351 36.446 833.351 35.69C833.351 35.4847 833.319 35.2653 833.253 35.032L832.707 32.946L833.729 32.652L834.303 34.794C834.387 35.13 834.429 35.4333 834.429 35.704C834.429 36.432 834.177 36.9967 833.673 37.398C833.179 37.7993 832.567 38 831.839 38H829.795V36.824ZM829.235 39.386H830.481V40.646H829.235V39.386ZM831.713 39.386H832.959V40.646H831.713V39.386ZM836.459 40.436C837.56 40.212 838.349 40.03 838.825 39.89C839.31 39.75 839.665 39.568 839.889 39.344C840.113 39.1293 840.225 38.8167 840.225 38.406C840.225 38.2473 840.22 38.126 840.211 38.042L840.197 37.832C839.6 37.944 838.988 38 838.363 38C837.915 38 837.514 37.8973 837.159 37.692C836.804 37.4773 836.524 37.188 836.319 36.824C836.123 36.4507 836.025 36.026 836.025 35.55C836.025 35.074 836.128 34.626 836.333 34.206C836.538 33.786 836.823 33.45 837.187 33.198C837.56 32.9367 837.99 32.806 838.475 32.806C839.156 32.806 839.73 33.072 840.197 33.604C840.664 34.1267 840.944 34.8127 841.037 35.662L841.275 37.93C841.294 38.1913 841.303 38.3733 841.303 38.476C841.303 39.1293 841.144 39.6427 840.827 40.016C840.51 40.3893 840.034 40.6833 839.399 40.898C838.774 41.122 837.864 41.3553 836.669 41.598L836.459 40.436ZM837.103 35.536C837.103 35.928 837.215 36.2407 837.439 36.474C837.663 36.7073 837.971 36.824 838.363 36.824C838.998 36.824 839.567 36.768 840.071 36.656L839.987 35.816C839.922 35.2373 839.754 34.7893 839.483 34.472C839.212 34.1453 838.872 33.982 838.461 33.982C838.032 33.982 837.696 34.136 837.453 34.444C837.22 34.7427 837.103 35.1067 837.103 35.536ZM846.489 38C846.219 38 845.985 37.972 845.789 37.916C845.817 38.1307 845.831 38.3267 845.831 38.504C845.831 39.0733 845.701 39.5447 845.439 39.918C845.178 40.2913 844.823 40.59 844.375 40.814C843.937 41.038 843.381 41.2433 842.709 41.43L842.135 41.598L841.855 40.45L842.443 40.282C842.994 40.1327 843.419 39.9927 843.717 39.862C844.025 39.7407 844.277 39.5633 844.473 39.33C844.669 39.106 844.767 38.798 844.767 38.406C844.767 38.3313 844.758 38.21 844.739 38.042L844.179 34.024L845.229 33.856L845.299 34.36C845.318 34.5093 845.337 34.6167 845.355 34.682L845.495 35.578C845.551 35.9233 845.612 36.1847 845.677 36.362C845.752 36.53 845.85 36.6513 845.971 36.726C846.093 36.7913 846.265 36.824 846.489 36.824H846.587L846.657 37.412L846.587 38H846.489ZM854.035 38C853.68 38 853.358 37.9347 853.069 37.804C852.78 37.664 852.537 37.4727 852.341 37.23C851.94 37.7433 851.356 38 850.591 38C850.236 38 849.914 37.93 849.625 37.79C849.336 37.65 849.093 37.4587 848.897 37.216C848.486 37.7387 847.898 38 847.133 38H846.475V36.824H847.133C847.973 36.824 848.393 36.446 848.393 35.69V33.954H849.387V35.69V35.774C849.387 36.0913 849.49 36.348 849.695 36.544C849.91 36.7307 850.208 36.824 850.591 36.824C851.394 36.824 851.814 36.4833 851.851 35.802V35.69V33.954H852.845V35.69V35.802C852.854 36.1193 852.962 36.3713 853.167 36.558C853.372 36.7353 853.662 36.824 854.035 36.824C854.408 36.824 854.712 36.74 854.945 36.572C855.188 36.3947 855.309 36.1053 855.309 35.704C855.309 35.4893 855.276 35.2653 855.211 35.032L854.651 32.946L855.673 32.652L856.233 34.738C856.326 35.074 856.373 35.4007 856.373 35.718C856.373 36.2033 856.266 36.6187 856.051 36.964C855.836 37.3 855.552 37.5567 855.197 37.734C854.842 37.9113 854.455 38 854.035 38Z" fill="white"/>
<path d="M928.356 38C927.283 38 926.475 37.9907 925.934 37.972C925.402 37.944 925.005 37.9067 924.744 37.86C924.492 37.8133 924.245 37.734 924.002 37.622C923.573 37.4353 923.246 37.1647 923.022 36.81C922.807 36.4553 922.7 36.04 922.7 35.564C922.7 35.2747 922.742 34.9713 922.826 34.654L923.344 32.68L924.366 32.988L923.848 35.004C923.792 35.228 923.764 35.424 923.764 35.592C923.764 35.816 923.815 36.0073 923.918 36.166C924.03 36.3153 924.198 36.4413 924.422 36.544C924.581 36.6187 924.763 36.6747 924.968 36.712C925.183 36.7493 925.551 36.7773 926.074 36.796C926.597 36.8147 927.381 36.824 928.426 36.824H931.254C931.478 36.824 931.66 36.768 931.8 36.656C932.052 36.488 932.178 36.2453 932.178 35.928C932.178 35.732 932.127 35.5593 932.024 35.41L928.916 31L929.154 30.104L934.208 28.242L934.586 29.348L930.246 30.944L932.836 34.696C933.116 35.1253 933.256 35.5827 933.256 36.068C933.256 36.3293 933.209 36.5767 933.116 36.81C933.023 37.0433 932.887 37.244 932.71 37.412C932.346 37.804 931.856 38 931.24 38H928.426H928.356ZM943.208 38C942.825 38 942.489 37.944 942.2 37.832C941.91 37.72 941.668 37.5193 941.472 37.23C941.276 37.4633 941.024 37.65 940.716 37.79C940.408 37.93 940.048 38 939.638 38H936.25V36.824H939.638C940.132 36.824 940.468 36.712 940.646 36.488C940.823 36.264 940.907 36.0027 940.898 35.704L940.632 28.788L941.696 28.732L941.962 35.592C942.008 36.0773 942.139 36.404 942.354 36.572C942.578 36.74 942.862 36.824 943.208 36.824H943.488L943.558 37.412L943.488 38H943.208ZM936.67 29.25L937.776 35.83L936.726 36.04L935.634 29.46L936.67 29.25ZM943.354 36.824H945.398C946.406 36.824 946.91 36.446 946.91 35.69C946.91 35.4847 946.877 35.2653 946.812 35.032L946.266 32.946L947.288 32.652L947.862 34.794C947.946 35.13 947.988 35.4333 947.988 35.704C947.988 36.432 947.736 36.9967 947.232 37.398C946.737 37.7993 946.126 38 945.398 38H943.354V36.824ZM942.738 39.316H944.068L944.054 40.632H942.738V39.316ZM944.04 41.234H945.258V42.396H944.04V41.234ZM945.216 39.316H946.546V40.632H945.216V39.316ZM957.603 41.304C957.146 41.4067 956.74 41.458 956.385 41.458C955.331 41.458 954.5 41.1127 953.893 40.422C953.296 39.7313 952.997 38.8027 952.997 37.636C952.997 36.7587 953.17 35.816 953.515 34.808L954.523 35.214C954.206 36.1287 954.047 36.95 954.047 37.678C954.047 38.4993 954.248 39.134 954.649 39.582C955.051 40.0393 955.625 40.268 956.371 40.268C956.67 40.268 957.001 40.226 957.365 40.142C958.037 39.9833 958.527 39.848 958.835 39.736C959.153 39.6333 959.414 39.4653 959.619 39.232C959.825 39.008 959.927 38.6907 959.927 38.28C959.927 38.1027 959.918 37.9627 959.899 37.86L959.339 34.024L960.389 33.842L960.501 34.57C960.809 36.726 960.959 37.7667 960.949 37.692C960.977 37.916 960.991 38.126 960.991 38.322C960.991 38.938 960.847 39.4373 960.557 39.82C960.268 40.212 959.885 40.5107 959.409 40.716C958.933 40.9307 958.331 41.1267 957.603 41.304ZM956.147 33.31H957.561V34.71H956.147V33.31ZM964.979 38C964.289 38 963.738 37.8647 963.327 37.594C962.926 37.314 962.702 36.95 962.655 36.502C962.609 36.306 962.585 35.998 962.585 35.578H963.565C963.565 35.8673 963.584 36.1007 963.621 36.278C963.659 36.474 963.771 36.614 963.957 36.698C964.153 36.782 964.438 36.824 964.811 36.824H965.763C966.734 36.824 967.219 36.5347 967.219 35.956C967.219 35.816 967.201 35.6853 967.163 35.564C967.014 35.0787 966.734 34.4813 966.323 33.772C965.913 33.0627 965.46 32.358 964.965 31.658L965.819 30.958C966.37 31.714 966.869 32.4887 967.317 33.282C967.765 34.066 968.059 34.738 968.199 35.298C968.255 35.522 968.283 35.746 968.283 35.97C968.283 36.5673 968.059 37.0573 967.611 37.44C967.173 37.8133 966.51 38 965.623 38H964.979ZM970.32 40.436C971.422 40.212 972.21 40.03 972.686 39.89C973.172 39.75 973.526 39.568 973.75 39.344C973.974 39.1293 974.086 38.8167 974.086 38.406C974.086 38.2473 974.082 38.126 974.072 38.042L974.058 37.832C973.461 37.944 972.85 38 972.224 38C971.776 38 971.375 37.8973 971.02 37.692C970.666 37.4773 970.386 37.188 970.18 36.824C969.984 36.4507 969.886 36.026 969.886 35.55C969.886 35.074 969.989 34.626 970.194 34.206C970.4 33.786 970.684 33.45 971.048 33.198C971.422 32.9367 971.851 32.806 972.336 32.806C973.018 32.806 973.592 33.072 974.058 33.604C974.525 34.1267 974.805 34.8127 974.898 35.662L975.136 37.93C975.155 38.1913 975.164 38.3733 975.164 38.476C975.164 39.1293 975.006 39.6427 974.688 40.016C974.371 40.3893 973.895 40.6833 973.26 40.898C972.635 41.122 971.725 41.3553 970.53 41.598L970.32 40.436ZM970.964 35.536C970.964 35.928 971.076 36.2407 971.3 36.474C971.524 36.7073 971.832 36.824 972.224 36.824C972.859 36.824 973.428 36.768 973.932 36.656L973.848 35.816C973.783 35.2373 973.615 34.7893 973.344 34.472C973.074 34.1453 972.733 33.982 972.322 33.982C971.893 33.982 971.557 34.136 971.314 34.444C971.081 34.7427 970.964 35.1067 970.964 35.536ZM980.392 38C980.121 38 979.888 37.972 979.692 37.916C979.72 38.1307 979.734 38.3267 979.734 38.504C979.734 39.0733 979.603 39.5447 979.342 39.918C979.08 40.2913 978.726 40.59 978.278 40.814C977.839 41.038 977.284 41.2433 976.612 41.43L976.038 41.598L975.758 40.45L976.346 40.282C976.896 40.1327 977.321 39.9927 977.62 39.862C977.928 39.7407 978.18 39.5633 978.376 39.33C978.572 39.106 978.67 38.798 978.67 38.406C978.67 38.3313 978.66 38.21 978.642 38.042L978.082 34.024L979.132 33.856L979.202 34.36C979.22 34.5093 979.239 34.6167 979.258 34.682L979.398 35.578C979.454 35.9233 979.514 36.1847 979.58 36.362C979.654 36.53 979.752 36.6513 979.874 36.726C979.995 36.7913 980.168 36.824 980.392 36.824H980.49L980.56 37.412L980.49 38H980.392ZM977.718 30.874H979.132V32.288H977.718V30.874ZM980.377 36.824H983.233C983.784 36.824 984.195 36.8007 984.465 36.754C984.745 36.7073 984.937 36.6233 985.039 36.502C985.142 36.3807 985.193 36.1987 985.193 35.956C985.193 35.8253 985.189 35.7227 985.179 35.648C984.638 35.732 984.05 35.774 983.415 35.774C982.725 35.774 982.179 35.5733 981.777 35.172C981.376 34.7613 981.175 34.206 981.175 33.506C981.175 33.03 981.264 32.5867 981.441 32.176C981.628 31.756 981.899 31.42 982.253 31.168C982.608 30.916 983.037 30.79 983.541 30.79C984.213 30.79 984.778 31.042 985.235 31.546C985.693 32.05 985.954 32.722 986.019 33.562L986.187 35.48C986.206 35.7413 986.215 35.9233 986.215 36.026C986.215 36.5113 986.127 36.894 985.949 37.174C985.772 37.454 985.464 37.664 985.025 37.804C984.596 37.9347 983.989 38 983.205 38H980.377V36.824ZM982.141 33.422C982.141 33.8047 982.253 34.1127 982.477 34.346C982.711 34.57 983.023 34.682 983.415 34.682C983.966 34.682 984.521 34.6353 985.081 34.542L984.997 33.66C984.932 33.0907 984.764 32.652 984.493 32.344C984.232 32.0267 983.901 31.868 983.499 31.868C983.079 31.868 982.748 32.022 982.505 32.33C982.263 32.638 982.141 33.002 982.141 33.422ZM982.799 28.018H984.213V29.418H982.799V28.018ZM988.062 28.788L989.126 28.732L989.476 37.986L988.426 38.042L988.062 28.788Z" fill="white"/>
</g>
<path d="M1276.86 20.6807H1281.4V25.2192H1276.86V20.6807Z" fill="white"/>
<path d="M1287.27 42.778H1291.81V47.3166H1287.27V42.778Z" fill="white"/>
<path d="M1257.2 37.2221V29.2527H1261.74V37.2221C1261.74 38.3402 1261.55 39.4203 1261.22 40.4315C1259.87 44.4305 1256.1 47.317 1251.64 47.317H1251V42.7785H1251.64C1254.09 42.7785 1256.17 41.1945 1256.91 38.9893C1257.1 38.437 1257.2 37.8437 1257.2 37.2221Z" fill="white"/>
<path d="M1296.29 40.9042V20.6807H1300.82V40.9042H1296.29Z" fill="white"/>
<path d="M1266.21 40.9042V20.6807H1270.74V40.9042H1266.21Z" fill="white"/>
<path d="M1287.27 29.2527L1287.27 36.3682L1281.46 36.3682V29.2527H1276.92V37.2221C1276.92 37.8437 1276.82 38.4371 1276.63 38.9893C1275.89 41.1945 1273.81 42.7785 1271.36 42.7785H1270.74V47.317H1271.36C1275.64 47.317 1279.29 44.6573 1280.76 40.9068L1287.27 40.9068C1289.78 40.9068 1291.81 38.8748 1291.81 36.3682L1291.81 29.2527H1287.27Z" fill="white"/>
<path d="M1324.75 20.6807H1333.8V25.2192L1324.75 25.2192V20.6807Z" fill="white"/>
<path d="M1338.33 40.9042V20.6807H1342.87V40.9042H1338.33Z" fill="white"/>
<path fill-rule="evenodd" clip-rule="evenodd" d="M1317.02 40.8908V40.9042H1318.82C1317.8 42.0558 1316.31 42.7807 1314.66 42.7807H1312.81V47.3193H1314.66C1318.94 47.3193 1322.59 44.6572 1324.06 40.9042H1329.26C1331.77 40.9042 1333.8 38.8722 1333.8 36.3656V29.1387H1329.26V36.3656H1324.75V33.4088C1324.75 29.3455 1321.46 26.0516 1317.4 26.0516C1313.31 26.0516 1310.04 29.3997 1310.04 33.4431C1310.04 37.3756 1313.11 40.6564 1317.02 40.8908ZM1314.58 33.4431C1314.58 31.8666 1315.86 30.5902 1317.4 30.5902C1318.95 30.5902 1320.21 31.8521 1320.21 33.4088V36.3656H1317.47C1315.89 36.3656 1314.58 35.0578 1314.58 33.4431Z" fill="white"/>
<path d="M1354.12 44.8228L1369.28 44.8226L1371.57 52H1379.1L1369 20.3695C1368.17 17.7667 1365.75 16 1363.02 16L1354.12 16.0003V23.1778L1362.36 23.1776L1366.98 37.645L1354.12 37.6453V44.8228Z" fill="white"/>
<path d="M1385.61 34.5702C1385.61 35.533 1384.83 36.3135 1383.87 36.3135H1377.54L1375.37 29.1221H1383.87C1384.83 29.1221 1385.61 29.9026 1385.61 30.8655V34.5702Z" fill="#F6C667"/>
<defs>
<clipPath id="clip0_1759_11033">
<rect x="672" y="24" width="319" height="20" rx="10" fill="white"/>
</clipPath>
</defs>
</svg>
