<svg width="142" height="48" viewBox="0 0 142 48" fill="none" xmlns="http://www.w3.org/2000/svg">
<path d="M25.8606 10.6807H30.3992V15.2192H25.8606V10.6807Z" fill="white"/>
<path d="M36.2686 32.778H40.8072V37.3166H36.2686V32.778Z" fill="white"/>
<path d="M6.19803 27.2221V19.2527H10.7366V27.2221C10.7366 28.3402 10.554 29.4203 10.2151 30.4315C8.87489 34.4305 5.0983 37.317 0.641634 37.317H-2.97089e-06V32.7785H0.641634C3.08921 32.7785 5.17273 31.1945 5.91175 28.9893C6.09682 28.437 6.19803 27.8437 6.19803 27.2221Z" fill="white"/>
<path d="M45.2851 30.9042V10.6807H49.8236V30.9042H45.2851Z" fill="white"/>
<path d="M15.2057 30.9042V10.6807H19.7443V30.9042H15.2057Z" fill="white"/>
<path d="M36.2686 19.2527L36.2686 26.3682L30.4564 26.3682V19.2527H25.9179V27.2221C25.9179 27.8437 25.8167 28.4371 25.6316 28.9893C24.8926 31.1945 22.809 32.7785 20.3615 32.7785H19.7443V37.317H20.3615C24.6395 37.317 28.2909 34.6573 29.7622 30.9068L36.2686 30.9068C38.7752 30.9068 40.8072 28.8748 40.8072 26.3682L40.8072 19.2527H36.2686Z" fill="white"/>
<path d="M73.7533 10.6807H82.802V15.2192L73.7533 15.2192V10.6807Z" fill="white"/>
<path d="M87.3332 30.9042V10.6807H91.8718V30.9042H87.3332Z" fill="white"/>
<path fill-rule="evenodd" clip-rule="evenodd" d="M66.0171 30.8908V30.9042H67.8221C66.8031 32.0558 65.314 32.7807 63.6583 32.7807H61.805V37.3193H63.6583C67.9382 37.3193 71.5909 34.6572 73.0609 30.9042H78.2635C80.77 30.9042 82.802 28.8722 82.802 26.3656V19.1387H78.2635V26.3656H73.7533V23.4088C73.7533 19.3455 70.4594 16.0516 66.3961 16.0516C62.313 16.0516 59.0389 19.3997 59.0389 23.4431C59.0389 27.3756 62.107 30.6564 66.0171 30.8908ZM63.5775 23.4431C63.5775 21.8666 64.8592 20.5902 66.3961 20.5902C67.9528 20.5902 69.2147 21.8521 69.2147 23.4088V26.3656H66.4652C64.8902 26.3656 63.5775 25.0578 63.5775 23.4431Z" fill="white"/>
<path d="M103.127 34.8228L118.279 34.8226L120.572 42H128.107L118.004 10.3695C117.172 7.76666 114.754 6 112.021 6L103.127 6.00027V13.1778L111.366 13.1776L115.987 27.645L103.127 27.6453V34.8228Z" fill="white"/>
<path d="M134.614 24.5702C134.614 25.533 133.833 26.3135 132.87 26.3135H126.542L124.371 19.1221H132.87C133.833 19.1221 134.614 19.9026 134.614 20.8655V24.5702Z" fill="#F6C667"/>
</svg>
